<svg version="1.1" xmlns="http://www.w3.org/2000/svg" xmlns:xlink="http://www.w3.org/1999/xlink" width="520.3134765625" height="484"><defs/><g><g transform="translate(-54,-54) scale(1,1)"><rect fill="#C0C0C0" stroke="none" x="71" y="71" width="104" height="130" opacity="0.2"/></g><g transform="translate(-54,-54) scale(1,1)"><rect fill="#ffffff" stroke="none" x="64" y="64" width="104" height="130"/></g><g transform="translate(-54,-54) scale(1,1)"><path fill="none" stroke="#000000" d="M 64 64 L 168 64 L 168 194 L 64 194 L 64 64 Z Z" stroke-miterlimit="10"/></g><g transform="translate(-54,-54) scale(1,1)"><path fill="none" stroke="#000000" d="M 64 89 L 168 89" stroke-miterlimit="10"/></g><g transform="translate(-54,-54) scale(1,1)"><path fill="none" stroke="#000000" d="M 64 142 L 168 142" stroke-miterlimit="10"/></g><g transform="translate(-54,-54) scale(1,1)"><g><path fill="none" stroke="none"/><text fill="#000000" stroke="none" font-family="Arial" font-size="13px" font-style="normal" font-weight="bold" text-decoration="none" x="99.3818359375" y="83.5">Client</text></g></g><g transform="translate(-54,-54) scale(1,1)"><g><path fill="none" stroke="none"/><text fill="#000000" stroke="none" font-family="Arial" font-size="13px" font-style="normal" font-weight="normal" text-decoration="none" x="69" y="106.5">+id</text></g></g><g transform="translate(-54,-54) scale(1,1)"><g><path fill="none" stroke="none"/><text fill="#000000" stroke="none" font-family="Arial" font-size="13px" font-style="normal" font-weight="normal" text-decoration="none" x="69" y="121.5">+name</text></g></g><g transform="translate(-54,-54) scale(1,1)"><g><path fill="none" stroke="none"/><text fill="#000000" stroke="none" font-family="Arial" font-size="13px" font-style="normal" font-weight="normal" text-decoration="none" x="69" y="136.5">+age</text></g></g><g transform="translate(-54,-54) scale(1,1)"><g><path fill="none" stroke="none"/><text fill="#000000" stroke="none" font-family="Arial" font-size="13px" font-style="normal" font-weight="normal" text-decoration="none" x="69" y="159.5">+getId()</text></g></g><g transform="translate(-54,-54) scale(1,1)"><g><path fill="none" stroke="none"/><text fill="#000000" stroke="none" font-family="Arial" font-size="13px" font-style="normal" font-weight="normal" text-decoration="none" x="69" y="174.5">+getName()</text></g></g><g transform="translate(-54,-54) scale(1,1)"><g><path fill="none" stroke="none"/><text fill="#000000" stroke="none" font-family="Arial" font-size="13px" font-style="normal" font-weight="normal" text-decoration="none" x="69" y="189.5">+getAge()</text></g></g><g transform="translate(-54,-54) scale(1,1)"><rect fill="#C0C0C0" stroke="none" x="71" y="287" width="112" height="160" opacity="0.2"/></g><g transform="translate(-54,-54) scale(1,1)"><rect fill="#ffffff" stroke="none" x="64" y="280" width="112" height="160"/></g><g transform="translate(-54,-54) scale(1,1)"><path fill="none" stroke="#000000" d="M 64 280 L 176 280 L 176 440 L 64 440 L 64 280 Z Z" stroke-miterlimit="10"/></g><g transform="translate(-54,-54) scale(1,1)"><path fill="none" stroke="#000000" d="M 64 305 L 176 305" stroke-miterlimit="10"/></g><g transform="translate(-54,-54) scale(1,1)"><path fill="none" stroke="#000000" d="M 64 373 L 176 373" stroke-miterlimit="10"/></g><g transform="translate(-54,-54) scale(1,1)"><g><path fill="none" stroke="none"/><text fill="#000000" stroke="none" font-family="Arial" font-size="13px" font-style="normal" font-weight="bold" text-decoration="none" x="102.29638671875" y="299.5">Media</text></g></g><g transform="translate(-54,-54) scale(1,1)"><g><path fill="none" stroke="none"/><text fill="#000000" stroke="none" font-family="Arial" font-size="13px" font-style="normal" font-weight="normal" text-decoration="none" x="69" y="322.5">+id</text></g></g><g transform="translate(-54,-54) scale(1,1)"><g><path fill="none" stroke="none"/><text fill="#000000" stroke="none" font-family="Arial" font-size="13px" font-style="normal" font-weight="normal" text-decoration="none" x="69" y="337.5">+file</text></g></g><g transform="translate(-54,-54) scale(1,1)"><g><path fill="none" stroke="none"/><text fill="#000000" stroke="none" font-family="Arial" font-size="13px" font-style="normal" font-weight="normal" text-decoration="none" x="69" y="352.5">+alt</text></g></g><g transform="translate(-54,-54) scale(1,1)"><g><path fill="none" stroke="none"/><text fill="#000000" stroke="none" font-family="Arial" font-size="13px" font-style="normal" font-weight="normal" text-decoration="none" x="69" y="367.5">+product</text></g></g><g transform="translate(-54,-54) scale(1,1)"><g><path fill="none" stroke="none"/><text fill="#000000" stroke="none" font-family="Arial" font-size="13px" font-style="normal" font-weight="normal" text-decoration="none" x="69" y="390.5">+setFile()</text></g></g><g transform="translate(-54,-54) scale(1,1)"><g><path fill="none" stroke="none"/><text fill="#000000" stroke="none" font-family="Arial" font-size="13px" font-style="normal" font-weight="normal" text-decoration="none" x="69" y="405.5">+getFile()</text></g></g><g transform="translate(-54,-54) scale(1,1)"><g><path fill="none" stroke="none"/><text fill="#000000" stroke="none" font-family="Arial" font-size="13px" font-style="normal" font-weight="normal" text-decoration="none" x="69" y="420.5">+getAlt()</text></g></g><g transform="translate(-54,-54) scale(1,1)"><g><path fill="none" stroke="none"/><text fill="#000000" stroke="none" font-family="Arial" font-size="13px" font-style="normal" font-weight="normal" text-decoration="none" x="69" y="435.5">+getProduct()</text></g></g><g transform="translate(-54,-54) scale(1,1)"><rect fill="#C0C0C0" stroke="none" x="455" y="79" width="116.3134765625" height="310" opacity="0.2"/></g><g transform="translate(-54,-54) scale(1,1)"><rect fill="#ffffff" stroke="none" x="448" y="72" width="116.3134765625" height="310"/></g><g transform="translate(-54,-54) scale(1,1)"><path fill="none" stroke="#000000" d="M 448 72 L 564.3134765625 72 L 564.3134765625 382 L 448 382 L 448 72 Z Z" stroke-miterlimit="10"/></g><g transform="translate(-54,-54) scale(1,1)"><path fill="none" stroke="#000000" d="M 448 97 L 564.3134765625 97" stroke-miterlimit="10"/></g><g transform="translate(-54,-54) scale(1,1)"><path fill="none" stroke="#000000" d="M 448 240 L 564.3134765625 240" stroke-miterlimit="10"/></g><g transform="translate(-54,-54) scale(1,1)"><g><path fill="none" stroke="none"/><text fill="#000000" stroke="none" font-family="Arial" font-size="13px" font-style="normal" font-weight="bold" text-decoration="none" x="483.755859375" y="91.5">Product</text></g></g><g transform="translate(-54,-54) scale(1,1)"><g><path fill="none" stroke="none"/><text fill="#000000" stroke="none" font-family="Arial" font-size="13px" font-style="normal" font-weight="normal" text-decoration="none" x="453" y="114.5">+id</text></g></g><g transform="translate(-54,-54) scale(1,1)"><g><path fill="none" stroke="none"/><text fill="#000000" stroke="none" font-family="Arial" font-size="13px" font-style="normal" font-weight="normal" text-decoration="none" x="453" y="129.5">+name</text></g></g><g transform="translate(-54,-54) scale(1,1)"><g><path fill="none" stroke="none"/><text fill="#000000" stroke="none" font-family="Arial" font-size="13px" font-style="normal" font-weight="normal" text-decoration="none" x="453" y="144.5">+presenttion</text></g></g><g transform="translate(-54,-54) scale(1,1)"><g><path fill="none" stroke="none"/><text fill="#000000" stroke="none" font-family="Arial" font-size="13px" font-style="normal" font-weight="normal" text-decoration="none" x="453" y="159.5">+price</text></g></g><g transform="translate(-54,-54) scale(1,1)"><g><path fill="none" stroke="none"/><text fill="#000000" stroke="none" font-family="Arial" font-size="13px" font-style="normal" font-weight="normal" text-decoration="none" x="453" y="174.5">+stock</text></g></g><g transform="translate(-54,-54) scale(1,1)"><g><path fill="none" stroke="none"/><text fill="#000000" stroke="none" font-family="Arial" font-size="13px" font-style="normal" font-weight="normal" text-decoration="none" x="453" y="189.5">+techs</text></g></g><g transform="translate(-54,-54) scale(1,1)"><g><path fill="none" stroke="none"/><text fill="#000000" stroke="none" font-family="Arial" font-size="13px" font-style="normal" font-weight="normal" text-decoration="none" x="453" y="204.5">+details</text></g></g><g transform="translate(-54,-54) scale(1,1)"><g><path fill="none" stroke="none"/><text fill="#000000" stroke="none" font-family="Arial" font-size="13px" font-style="normal" font-weight="normal" text-decoration="none" x="453" y="219.5">+category</text></g></g><g transform="translate(-54,-54) scale(1,1)"><g><path fill="none" stroke="none"/><text fill="#000000" stroke="none" font-family="Arial" font-size="13px" font-style="normal" font-weight="normal" text-decoration="none" x="453" y="234.5">+category</text></g></g><g transform="translate(-54,-54) scale(1,1)"><g><path fill="none" stroke="none"/><text fill="#000000" stroke="none" font-family="Arial" font-size="13px" font-style="normal" font-weight="normal" text-decoration="none" x="453" y="257.5">+getId()</text></g></g><g transform="translate(-54,-54) scale(1,1)"><g><path fill="none" stroke="none"/><text fill="#000000" stroke="none" font-family="Arial" font-size="13px" font-style="normal" font-weight="normal" text-decoration="none" x="453" y="272.5">+getName()</text></g></g><g transform="translate(-54,-54) scale(1,1)"><g><path fill="none" stroke="none"/><text fill="#000000" stroke="none" font-family="Arial" font-size="13px" font-style="normal" font-weight="normal" text-decoration="none" x="453" y="287.5">+getPresentation()</text></g></g><g transform="translate(-54,-54) scale(1,1)"><g><path fill="none" stroke="none"/><text fill="#000000" stroke="none" font-family="Arial" font-size="13px" font-style="normal" font-weight="normal" text-decoration="none" x="453" y="302.5">+getPrice()</text></g></g><g transform="translate(-54,-54) scale(1,1)"><g><path fill="none" stroke="none"/><text fill="#000000" stroke="none" font-family="Arial" font-size="13px" font-style="normal" font-weight="normal" text-decoration="none" x="453" y="317.5">+getStock()</text></g></g><g transform="translate(-54,-54) scale(1,1)"><g><path fill="none" stroke="none"/><text fill="#000000" stroke="none" font-family="Arial" font-size="13px" font-style="normal" font-weight="normal" text-decoration="none" x="453" y="332.5">+getTechs()</text></g></g><g transform="translate(-54,-54) scale(1,1)"><g><path fill="none" stroke="none"/><text fill="#000000" stroke="none" font-family="Arial" font-size="13px" font-style="normal" font-weight="normal" text-decoration="none" x="453" y="347.5">+getDetails()</text></g></g><g transform="translate(-54,-54) scale(1,1)"><g><path fill="none" stroke="none"/><text fill="#000000" stroke="none" font-family="Arial" font-size="13px" font-style="normal" font-weight="normal" text-decoration="none" x="453" y="362.5">+getUrl()</text></g></g><g transform="translate(-54,-54) scale(1,1)"><g><path fill="none" stroke="none"/><text fill="#000000" stroke="none" font-family="Arial" font-size="13px" font-style="normal" font-weight="normal" text-decoration="none" x="453" y="377.5">+getCategory()</text></g></g><g transform="translate(-54,-54) scale(1,1)"><rect fill="#C0C0C0" stroke="none" x="279" y="287" width="96" height="152" opacity="0.2"/></g><g transform="translate(-54,-54) scale(1,1)"><rect fill="#ffffff" stroke="none" x="272" y="280" width="96" height="152"/></g><g transform="translate(-54,-54) scale(1,1)"><path fill="none" stroke="#000000" d="M 272 280 L 368 280 L 368 432 L 272 432 L 272 280 Z Z" stroke-miterlimit="10"/></g><g transform="translate(-54,-54) scale(1,1)"><path fill="none" stroke="#000000" d="M 272 305 L 368 305" stroke-miterlimit="10"/></g><g transform="translate(-54,-54) scale(1,1)"><path fill="none" stroke="#000000" d="M 272 358 L 368 358" stroke-miterlimit="10"/></g><g transform="translate(-54,-54) scale(1,1)"><g><path fill="none" stroke="none"/><text fill="#000000" stroke="none" font-family="Arial" font-size="13px" font-style="normal" font-weight="bold" text-decoration="none" x="293.62548828125" y="299.5">Category</text></g></g><g transform="translate(-54,-54) scale(1,1)"><g><path fill="none" stroke="none"/><text fill="#000000" stroke="none" font-family="Arial" font-size="13px" font-style="normal" font-weight="normal" text-decoration="none" x="277" y="322.5">+id</text></g></g><g transform="translate(-54,-54) scale(1,1)"><g><path fill="none" stroke="none"/><text fill="#000000" stroke="none" font-family="Arial" font-size="13px" font-style="normal" font-weight="normal" text-decoration="none" x="277" y="337.5">+name</text></g></g><g transform="translate(-54,-54) scale(1,1)"><g><path fill="none" stroke="none"/><text fill="#000000" stroke="none" font-family="Arial" font-size="13px" font-style="normal" font-weight="normal" text-decoration="none" x="277" y="352.5">+url</text></g></g><g transform="translate(-54,-54) scale(1,1)"><g><path fill="none" stroke="none"/><text fill="#000000" stroke="none" font-family="Arial" font-size="13px" font-style="normal" font-weight="normal" text-decoration="none" x="277" y="375.5">+getId()</text></g></g><g transform="translate(-54,-54) scale(1,1)"><g><path fill="none" stroke="none"/><text fill="#000000" stroke="none" font-family="Arial" font-size="13px" font-style="normal" font-weight="normal" text-decoration="none" x="277" y="390.5">+getName()</text></g></g><g transform="translate(-54,-54) scale(1,1)"><g><path fill="none" stroke="none"/><text fill="#000000" stroke="none" font-family="Arial" font-size="13px" font-style="normal" font-weight="normal" text-decoration="none" x="277" y="405.5">+getUrl()</text></g></g><g transform="translate(-54,-54) scale(1,1)"><rect fill="#C0C0C0" stroke="none" x="455" y="431" width="112" height="104" opacity="0.2"/></g><g transform="translate(-54,-54) scale(1,1)"><rect fill="#ffffff" stroke="none" x="448" y="424" width="112" height="104"/></g><g transform="translate(-54,-54) scale(1,1)"><path fill="none" stroke="#000000" d="M 448 424 L 560 424 L 560 528 L 448 528 L 448 424 Z Z" stroke-miterlimit="10"/></g><g transform="translate(-54,-54) scale(1,1)"><path fill="none" stroke="#000000" d="M 448 449 L 560 449" stroke-miterlimit="10"/></g><g transform="translate(-54,-54) scale(1,1)"><path fill="none" stroke="#000000" d="M 448 472 L 560 472" stroke-miterlimit="10"/></g><g transform="translate(-54,-54) scale(1,1)"><g><path fill="none" stroke="none"/><text fill="#000000" stroke="none" font-family="Arial" font-size="13px" font-style="normal" font-weight="bold" text-decoration="none" x="484.135009765625" y="443.5">Orders</text></g></g><g transform="translate(-54,-54) scale(1,1)"><g><path fill="none" stroke="none"/><text fill="#000000" stroke="none" font-family="Arial" font-size="13px" font-style="normal" font-weight="normal" text-decoration="none" x="453" y="466.5">+id</text></g></g><g transform="translate(-54,-54) scale(1,1)"><g><path fill="none" stroke="none"/><text fill="#000000" stroke="none" font-family="Arial" font-size="13px" font-style="normal" font-weight="normal" text-decoration="none" x="453" y="489.5">+Operation1()</text></g></g><g transform="translate(-54,-54) scale(1,1)"><path fill="none" stroke="#000000" d="M 448 120 L 168 120" stroke-miterlimit="10"/></g><g transform="translate(-54,-54) scale(1,1)"><g><path fill="none" stroke="none"/><text fill="#000000" stroke="none" font-family="Arial" font-size="13px" font-style="normal" font-weight="normal" text-decoration="none" x="415.5" y="113.5">0..1</text></g></g><g transform="translate(-54,-54) scale(1,1)"><g><path fill="none" stroke="none"/><text fill="#000000" stroke="none" font-family="Arial" font-size="13px" font-style="normal" font-weight="normal" text-decoration="none" x="166.5" y="139.5">+Achete</text></g></g><g transform="translate(-54,-54) scale(1,1)"><g><path fill="none" stroke="none"/><text fill="#000000" stroke="none" font-family="Arial" font-size="13px" font-style="normal" font-weight="normal" text-decoration="none" x="179.5" y="113.5">0..*</text></g></g></g></svg>